TITLE ""
FILE "1Q_t_1049-1058.mp3" MP3
  TRACK 01 AUDIO
    TITLE "1Q_t_1049-1058_01"
    INDEX 01 00:00:00
  TRACK 02 AUDIO
    TITLE "1Q_t_1049-1058_02"
    INDEX 01 00:01:04
  TRACK 03 AUDIO
    TITLE "1Q_t_1049-1058_03"
    INDEX 01 00:01:14
  TRACK 04 AUDIO
    TITLE "1Q_t_1049-1058_04"
    INDEX 01 00:03:28
  TRACK 05 AUDIO
    TITLE "1Q_t_1049-1058_05"
    INDEX 01 00:03:36
  TRACK 06 AUDIO
    TITLE "1Q_t_1049-1058_06"
    INDEX 01 00:07:32
  TRACK 07 AUDIO
    TITLE "1Q_t_1049-1058_07"
    INDEX 01 00:08:06
  TRACK 08 AUDIO
    TITLE "1Q_t_1049-1058_08"
    INDEX 01 00:09:25
  TRACK 09 AUDIO
    TITLE "1Q_t_1049-1058_09"
    INDEX 01 00:09:33
  TRACK 10 AUDIO
    TITLE "1Q_t_1049-1058_10"
    INDEX 01 00:12:33
  TRACK 11 AUDIO
    TITLE "1Q_t_1049-1058_11"
    INDEX 01 00:12:41
  TRACK 12 AUDIO
    TITLE "1Q_t_1049-1058_12"
    INDEX 01 00:17:73
  TRACK 13 AUDIO
    TITLE "1Q_t_1049-1058_13"
    INDEX 01 00:18:43
  TRACK 14 AUDIO
    TITLE "1Q_t_1049-1058_14"
    INDEX 01 00:19:53
  TRACK 15 AUDIO
    TITLE "1Q_t_1049-1058_15"
    INDEX 01 00:19:61
  TRACK 16 AUDIO
    TITLE "1Q_t_1049-1058_16"
    INDEX 01 00:23:17
  TRACK 17 AUDIO
    TITLE "1Q_t_1049-1058_17"
    INDEX 01 00:23:23
  TRACK 18 AUDIO
    TITLE "1Q_t_1049-1058_18"
    INDEX 01 00:30:31
  TRACK 19 AUDIO
    TITLE "1Q_t_1049-1058_19"
    INDEX 01 00:31:11
  TRACK 20 AUDIO
    TITLE "1Q_t_1049-1058_20"
    INDEX 01 00:32:40
  TRACK 21 AUDIO
    TITLE "1Q_t_1049-1058_21"
    INDEX 01 00:32:53
  TRACK 22 AUDIO
    TITLE "1Q_t_1049-1058_22"
    INDEX 01 00:35:24
  TRACK 23 AUDIO
    TITLE "1Q_t_1049-1058_23"
    INDEX 01 00:35:30
  TRACK 24 AUDIO
    TITLE "1Q_t_1049-1058_24"
    INDEX 01 00:41:58
  TRACK 25 AUDIO
    TITLE "1Q_t_1049-1058_25"
    INDEX 01 00:42:26
  TRACK 26 AUDIO
    TITLE "1Q_t_1049-1058_26"
    INDEX 01 00:43:41
  TRACK 27 AUDIO
    TITLE "1Q_t_1049-1058_27"
    INDEX 01 00:43:49
  TRACK 28 AUDIO
    TITLE "1Q_t_1049-1058_28"
    INDEX 01 00:46:06
  TRACK 29 AUDIO
    TITLE "1Q_t_1049-1058_29"
    INDEX 01 00:46:10
  TRACK 30 AUDIO
    TITLE "1Q_t_1049-1058_30"
    INDEX 01 00:50:24
  TRACK 31 AUDIO
    TITLE "1Q_t_1049-1058_31"
    INDEX 01 00:50:71
  TRACK 32 AUDIO
    TITLE "1Q_t_1049-1058_32"
    INDEX 01 00:51:74
  TRACK 33 AUDIO
    TITLE "1Q_t_1049-1058_33"
    INDEX 01 00:52:09
  TRACK 34 AUDIO
    TITLE "1Q_t_1049-1058_34"
    INDEX 01 00:53:14
  TRACK 35 AUDIO
    TITLE "1Q_t_1049-1058_35"
    INDEX 01 00:53:22
  TRACK 36 AUDIO
    TITLE "1Q_t_1049-1058_36"
    INDEX 01 00:59:31
  TRACK 37 AUDIO
    TITLE "1Q_t_1049-1058_37"
    INDEX 01 01:00:01
  TRACK 38 AUDIO
    TITLE "1Q_t_1049-1058_38"
    INDEX 01 01:01:28
  TRACK 39 AUDIO
    TITLE "1Q_t_1049-1058_39"
    INDEX 01 01:01:35
  TRACK 40 AUDIO
    TITLE "1Q_t_1049-1058_40"
    INDEX 01 01:04:01
  TRACK 41 AUDIO
    TITLE "1Q_t_1049-1058_41"
    INDEX 01 01:04:06
  TRACK 42 AUDIO
    TITLE "1Q_t_1049-1058_42"
    INDEX 01 01:08:57
  TRACK 43 AUDIO
    TITLE "1Q_t_1049-1058_43"
    INDEX 01 01:09:27
  TRACK 44 AUDIO
    TITLE "1Q_t_1049-1058_44"
    INDEX 01 01:10:52
  TRACK 45 AUDIO
    TITLE "1Q_t_1049-1058_45"
    INDEX 01 01:10:60
  TRACK 46 AUDIO
    TITLE "1Q_t_1049-1058_46"
    INDEX 01 01:11:67
  TRACK 47 AUDIO
    TITLE "1Q_t_1049-1058_47"
    INDEX 01 01:11:75
  TRACK 48 AUDIO
    TITLE "1Q_t_1049-1058_48"
    INDEX 01 01:16:60
  TRACK 49 AUDIO
    TITLE "1Q_t_1049-1058_49"
    INDEX 01 01:17:31
  TRACK 50 AUDIO
    TITLE "1Q_t_1049-1058_50"
    INDEX 01 01:18:30
  TRACK 51 AUDIO
    TITLE "1Q_t_1049-1058_51"
    INDEX 01 01:18:38
  TRACK 52 AUDIO
    TITLE "1Q_t_1049-1058_52"
    INDEX 01 01:19:43
  TRACK 53 AUDIO
    TITLE "1Q_t_1049-1058_53"
    INDEX 01 01:19:51
  TRACK 54 AUDIO
    TITLE "1Q_t_1049-1058_54"
    INDEX 01 01:25:26
  TRACK 55 AUDIO
    TITLE "1Q_t_1049-1058_55"
    INDEX 01 01:25:73
  TRACK 56 AUDIO
    TITLE "1Q_t_1049-1058_56"
    INDEX 01 01:27:11
  TRACK 57 AUDIO
    TITLE "1Q_t_1049-1058_57"
    INDEX 01 01:27:17
  TRACK 58 AUDIO
    TITLE "1Q_t_1049-1058_58"
    INDEX 01 01:29:42
  TRACK 59 AUDIO
    TITLE "1Q_t_1049-1058_59"
    INDEX 01 01:29:47
  TRACK 60 AUDIO
    TITLE "1Q_t_1049-1058_60"
    INDEX 01 01:35:56
